{
  "accessors": [
    {
      "bufferView": 2,
      "componentType": 5126,
      "count": 7306,
      "max": [
        -3.1573612689971924,
        1.5251234769821167,
        0.22181391716003418
      ],
      "min": [
        -10.015534400939941,
        -1.5208549499511719,
        -0.22181333601474762
      ],
      "type": "VEC3"
    },
    {
      "bufferView": 2,
      "byteOffset": 87672,
      "componentType": 5126,
      "count": 7306,
      "max": [
        1.0,
        0.999994695186615,
        1.0
      ],
      "min": [
        -1.0,
        -0.9999969601631165,
        -1.0
      ],
      "type": "VEC3"
    },
    {
      "bufferView": 1,
      "componentType": 5126,
      "count": 7306,
      "max": [
        0.8750000596046448,
        1.007564902305603
      ],
      "min": [
        0.12477125972509384,
        0.0
      ],
      "type": "VEC2"
    },
    {
      "bufferView": 0,
      "componentType": 5125,
      "count": 14106,
      "type": "SCALAR"
    },
    {
      "bufferView": 2,
      "byteOffset": 175344,
      "componentType": 5126,
      "count": 2120,
      "max": [
        -2.4045448303222656,
        1.6409052610397339,
        0.15476253628730774
      ],
      "min": [
        -10.015534400939941,
        -1.4778743982315063,
        -0.1547619253396988
      ],
      "type": "VEC3"
    },
    {
      "bufferView": 2,
      "byteOffset": 200784,
      "componentType": 5126,
      "count": 2120,
      "max": [
        0.9966172575950623,
        0.9999995827674866,
        1.0
      ],
      "min": [
        -0.9943108558654785,
        -1.0,
        -1.0
      ],
      "type": "VEC3"
    },
    {
      "bufferView": 1,
      "byteOffset": 58448,
      "componentType": 5126,
      "count": 2120,
      "max": [
        0.875,
        1.0
      ],
      "min": [
        0.13493672013282776,
        0.07451809197664261
      ],
      "type": "VEC2"
    },
    {
      "bufferView": 0,
      "byteOffset": 56424,
      "componentType": 5125,
      "count": 3240,
      "type": "SCALAR"
    },
    {
      "bufferView": 2,
      "byteOffset": 226224,
      "componentType": 5126,
      "count": 1000,
      "max": [
        10.13823127746582,
        1.6454170942306519,
        0.10992282629013062
      ],
      "min": [
        -3.79062557220459,
        -1.346417784690857,
        -0.11591392010450363
      ],
      "type": "VEC3"
    },
    {
      "bufferView": 2,
      "byteOffset": 238224,
      "componentType": 5126,
      "count": 1000,
      "max": [
        0.7105045914649963,
        0.014119695872068405,
        1.0
      ],
      "min": [
        -0.5650610327720642,
        -1.0,
        -1.0
      ],
      "type": "VEC3"
    },
    {
      "bufferView": 1,
      "byteOffset": 75408,
      "componentType": 5126,
      "count": 1000,
      "max": [
        0.5679334998130798,
        1.0
      ],
      "min": [
        0.13493672013282776,
        0.625
      ],
      "type": "VEC2"
    },
    {
      "bufferView": 0,
      "byteOffset": 69384,
      "componentType": 5125,
      "count": 1512,
      "type": "SCALAR"
    },
    {
      "bufferView": 2,
      "byteOffset": 250224,
      "componentType": 5126,
      "count": 558,
      "max": [
        10.13823127746582,
        -1.2282036542892456,
        0.10523539036512375
      ],
      "min": [
        -2.4045448303222656,
        -1.559278130531311,
        -0.10523422807455063
      ],
      "type": "VEC3"
    },
    {
      "bufferView": 2,
      "byteOffset": 256920,
      "componentType": 5126,
      "count": 558,
      "max": [
        0.6600916981697083,
        0.9999417662620544,
        0.9748848676681519
      ],
      "min": [
        -1.0,
        -0.9238075613975525,
        -0.9748850464820862
      ],
      "type": "VEC3"
    },
    {
      "bufferView": 1,
      "byteOffset": 83408,
      "componentType": 5126,
      "count": 558,
      "max": [
        0.8750001192092896,
        1.005896806716919
      ],
      "min": [
        0.46969330310821533,
        -0.008278482593595982
      ],
      "type": "VEC2"
    },
    {
      "bufferView": 0,
      "byteOffset": 75432,
      "componentType": 5125,
      "count": 984,
      "type": "SCALAR"
    },
    {
      "bufferView": 2,
      "byteOffset": 263616,
      "componentType": 5126,
      "count": 3964,
      "max": [
        8.178422927856445,
        1.4371455907821655,
        0.20167052745819092
      ],
      "min": [
        -9.828954696655273,
        -1.462683081626892,
        -0.20558537542819977
      ],
      "type": "VEC3"
    },
    {
      "bufferView": 2,
      "byteOffset": 311184,
      "componentType": 5126,
      "count": 3964,
      "max": [
        0.999918520450592,
        1.0,
        1.0
      ],
      "min": [
        -0.9999985098838806,
        -1.0,
        -1.0
      ],
      "type": "VEC3"
    },
    {
      "bufferView": 1,
      "byteOffset": 87872,
      "componentType": 5126,
      "count": 3964,
      "max": [
        0.8750001788139343,
        1.0000001192092896
      ],
      "min": [
        0.12499997764825821,
        -8.003553375601768e-11
      ],
      "type": "VEC2"
    },
    {
      "bufferView": 0,
      "byteOffset": 79368,
      "componentType": 5125,
      "count": 10764,
      "type": "SCALAR"
    },
    {
      "bufferView": 2,
      "byteOffset": 358752,
      "componentType": 5126,
      "count": 4787,
      "max": [
        -1.1772046089172363,
        1.325703501701355,
        0.20167605578899384
      ],
      "min": [
        -9.707630157470703,
        -1.4705123901367188,
        -0.20763757824897766
      ],
      "type": "VEC3"
    },
    {
      "bufferView": 2,
      "byteOffset": 416196,
      "componentType": 5126,
      "count": 4787,
      "max": [
        1.0,
        0.9997026920318604,
        1.0
      ],
      "min": [
        -0.9984323978424072,
        -0.9999792575836182,
        -1.0
      ],
      "type": "VEC3"
    },
    {
      "bufferView": 1,
      "byteOffset": 119584,
      "componentType": 5126,
      "count": 4787,
      "max": [
        0.875,
        1.0000001192092896
      ],
      "min": [
        0.12499997764825821,
        0.0
      ],
      "type": "VEC2"
    },
    {
      "bufferView": 0,
      "byteOffset": 122424,
      "componentType": 5125,
      "count": 24390,
      "type": "SCALAR"
    }
  ],
  "asset": {
    "extras": {
      "author": "Growffle (https://sketchfab.com/Growffle)",
      "license": "CC-BY-4.0 (http://creativecommons.org/licenses/by/4.0/)",
      "source": "https://sketchfab.com/3d-models/glitch-knife-from-valorant-0b545b2e9c894a1c896537648de9a9b5",
      "title": "Glitch Knife From Valorant"
    },
    "generator": "Sketchfab-12.61.0",
    "version": "2.0"
  },
  "bufferViews": [
    {
      "buffer": 0,
      "byteLength": 219984,
      "name": "floatBufferViews",
      "target": 34963
    },
    {
      "buffer": 0,
      "byteLength": 157880,
      "byteOffset": 219984,
      "byteStride": 8,
      "name": "floatBufferViews",
      "target": 34962
    },
    {
      "buffer": 0,
      "byteLength": 473640,
      "byteOffset": 377864,
      "byteStride": 12,
      "name": "floatBufferViews",
      "target": 34962
    }
  ],
  "buffers": [
    {
      "byteLength": 851504,
      "uri": "scene.bin"
    }
  ],
  "materials": [
    {
      "doubleSided": true,
      "name": "black_grip",
      "pbrMetallicRoughness": {
        "baseColorFactor": [
          0.015995,
          0.015995,
          0.015995,
          1.0
        ]
      }
    },
    {
      "doubleSided": true,
      "name": "white",
      "pbrMetallicRoughness": {
        "baseColorFactor": [
          0.8,
          0.8,
          0.8,
          1.0
        ],
        "metallicFactor": 0.0,
        "roughnessFactor": 0.5
      }
    },
    {
      "doubleSided": true,
      "name": "black_blade",
      "pbrMetallicRoughness": {
        "baseColorFactor": [
          0.0,
          0.0,
          0.0,
          1.0
        ],
        "metallicFactor": 0.8,
        "roughnessFactor": 0.4
      }
    },
    {
      "doubleSided": true,
      "name": "grey",
      "pbrMetallicRoughness": {
        "baseColorFactor": [
          0.391573,
          0.391573,
          0.391573,
          1.0
        ],
        "metallicFactor": 0.0,
        "roughnessFactor": 0.5
      }
    },
    {
      "doubleSided": true,
      "name": "gold",
      "pbrMetallicRoughness": {
        "baseColorFactor": [
          0.584079,
          0.215861,
          0.0,
          1.0
        ],
        "roughnessFactor": 0.2
      }
    },
    {
      "doubleSided": true,
      "name": "purple_and_blue",
      "pbrMetallicRoughness": {
        "metallicFactor": 0.99,
        "roughnessFactor": 0.1
      }
    }
  ],
  "meshes": [
    {
      "name": "Object_0",
      "primitives": [
        {
          "attributes": {
            "NORMAL": 1,
            "POSITION": 0,
            "TEXCOORD_0": 2
          },
          "indices": 3,
          "material": 0,
          "mode": 4
        }
      ]
    },
    {
      "name": "Object_1",
      "primitives": [
        {
          "attributes": {
            "NORMAL": 5,
            "POSITION": 4,
            "TEXCOORD_0": 6
          },
          "indices": 7,
          "material": 1,
          "mode": 4
        }
      ]
    },
    {
      "name": "Object_2",
      "primitives": [
        {
          "attributes": {
            "NORMAL": 9,
            "POSITION": 8,
            "TEXCOORD_0": 10
          },
          "indices": 11,
          "material": 2,
          "mode": 4
        }
      ]
    },
    {
      "name": "Object_3",
      "primitives": [
        {
          "attributes": {
            "NORMAL": 13,
            "POSITION": 12,
            "TEXCOORD_0": 14
          },
          "indices": 15,
          "material": 3,
          "mode": 4
        }
      ]
    },
    {
      "name": "Object_4",
      "primitives": [
        {
          "attributes": {
            "NORMAL": 17,
            "POSITION": 16,
            "TEXCOORD_0": 18
          },
          "indices": 19,
          "material": 4,
          "mode": 4
        }
      ]
    },
    {
      "name": "Object_5",
      "primitives": [
        {
          "attributes": {
            "NORMAL": 21,
            "POSITION": 20,
            "TEXCOORD_0": 22
          },
          "indices": 23,
          "material": 5,
          "mode": 4
        }
      ]
    }
  ],
  "nodes": [
    {
      "children": [
        1
      ],
      "matrix": [
        1.0,
        0.0,
        0.0,
        0.0,
        0.0,
        2.220446049250313e-16,
        -1.0,
        0.0,
        0.0,
        1.0,
        2.220446049250313e-16,
        0.0,
        0.0,
        0.0,
        0.0,
        1.0
      ],
      "name": "Sketchfab_model"
    },
    {
      "children": [
        2
      ],
      "name": "root"
    },
    {
      "children": [
        3
      ],
      "matrix": [
        1.0,
        0.0,
        0.0,
        0.0,
        0.0,
        2.220446049250313e-16,
        1.0,
        0.0,
        0.0,
        -1.0,
        2.220446049250313e-16,
        0.0,
        0.0,
        0.0,
        0.0,
        1.0
      ],
      "name": "GLTF_SceneRootNode"
    },
    {
      "children": [
        4,
        5,
        6,
        7,
        8,
        9
      ],
      "matrix": [
        -0.0,
        -2.9655444622039795,
        -0.0,
        -0.0,
        2.9655444622039795,
        -0.0,
        -0.0,
        -0.0,
        -0.0,
        -0.0,
        -2.9655444622039795,
        -0.0,
        0.0,
        0.4059016704559326,
        0.0,
        1.0
      ],
      "name": "knife_0"
    },
    {
      "mesh": 0,
      "name": "Object_4"
    },
    {
      "mesh": 1,
      "name": "Object_5"
    },
    {
      "mesh": 2,
      "name": "Object_6"
    },
    {
      "mesh": 3,
      "name": "Object_7"
    },
    {
      "mesh": 4,
      "name": "Object_8"
    },
    {
      "mesh": 5,
      "name": "Object_9"
    }
  ],
  "scene": 0,
  "scenes": [
    {
      "name": "Sketchfab_Scene",
      "nodes": [
        0
      ]
    }
  ]
}
